<svg id="レイヤー_1" data-name="レイヤー 1" xmlns="http://www.w3.org/2000/svg" viewBox="0 0 595.53 595.53"><defs><style>.cls-1{fill:#bcf8f7;}.cls-2,.cls-3,.cls-4,.cls-6,.cls-8{fill:none;stroke-miterlimit:10;}.cls-2,.cls-6{stroke:#fff;}.cls-2{stroke-width:4px;}.cls-3{stroke:#ff29af;}.cls-3,.cls-4{stroke-width:6px;}.cls-4{stroke:#5bdbff;}.cls-5{fill:#fff;}.cls-6,.cls-8{stroke-width:7px;}.cls-7{fill:#00baff;}.cls-8{stroke:#00baff;}</style></defs><title>201908</title><rect class="cls-1" width="595.53" height="595.53"/><circle class="cls-2" cx="303.09" cy="287.33" r="218.64"/><circle class="cls-3" cx="317.19" cy="284.38" r="218.01"/><circle class="cls-4" cx="297.76" cy="297.76" r="232.32"/><path class="cls-5" d="M213.24,248.46H194.87c-13,0-15.62,6.93-15.62,16.61v11.22H238v9.13H170.23v-21c0-14.08,5.72-24.64,23.54-24.64h18.59c9.9,0,16.94-6.16,16.94-15.4v-4.18c0-9.46-6.71-15.29-16.72-15.29h-41.8v-9h42.57c14.41,0,24.75,9.35,24.75,23.43v5.83C238.1,239.22,227.65,248.46,213.24,248.46Z" transform="translate(0.13 0.13)"/><path class="cls-5" d="M300.58,285.42H276.27c-13.42,0-23.1-9.9-23.1-22.44V218.21c0-13.31,10.45-22.33,22.88-22.33h24.64c12.54,0,22.77,9,22.77,22.33V263C323.46,275.52,313.89,285.42,300.58,285.42ZM314.22,219c0-8.58-6.6-14-14.3-14h-23.1c-7.7,0-14.41,5.39-14.41,14v43.23c0,7.59,6.27,14,14.63,14h22.77a14.09,14.09,0,0,0,14.41-14Z" transform="translate(0.13 0.13)"/><line class="cls-6" x1="311.94" y1="208.02" x2="259.54" y2="274.77"/><path class="cls-5" d="M361.3,285.42V212.49a7.23,7.23,0,0,0-7.37-7.37H339.19V196H355c9,0,15.4,6.6,15.4,15.4v74Z" transform="translate(0.13 0.13)"/><path class="cls-5" d="M442.59,285.31H398.15v-9.13H442c8.36,0,14.19-5.94,14.19-13.86V249.56H417.62c-12.43,0-22.77-8.47-22.77-22.11v-9.57c0-12.54,9.46-22,22.88-22h24.86c13.53,0,22.88,9.57,22.88,22v44.88C465.47,275.41,455.9,285.31,442.59,285.31Zm13.64-66.77c0-7.59-5.72-13.53-14.3-13.53H418.17c-8.47,0-14.08,5.83-14.08,13.42v8.91c0,8.36,6.27,13.31,14,13.31h38.17Z" transform="translate(0.13 0.13)"/><path class="cls-5" d="M358.22,395.42H333.91c-13.42,0-23.1-9.9-23.1-22.44V328.21c0-13.31,10.45-22.33,22.88-22.33h24.64c12.54,0,22.77,9,22.77,22.33V373C381.1,385.52,371.53,395.42,358.22,395.42ZM371.86,329c0-8.58-6.6-14-14.3-14h-23.1c-7.7,0-14.41,5.39-14.41,14v43.23c0,7.59,6.27,14,14.63,14h22.77a14.09,14.09,0,0,0,14.41-14Z" transform="translate(0.13 0.13)"/><line class="cls-6" x1="370.9" y1="317.49" x2="317.26" y2="384.18"/><path class="cls-5" d="M444.35,395.42h-28.6c-12.1,0-22-8.25-22-21.23V367.7a20.91,20.91,0,0,1,9.79-17.93A20.69,20.69,0,0,1,395,332.83v-5.61c0-13,9.35-21.23,21.45-21.23H443.8c12.21,0,21.56,8.25,21.56,21.23v5.61a20.78,20.78,0,0,1-8.69,16.94,21,21,0,0,1,9.9,17.93v6.49C466.57,387.17,456.67,395.42,444.35,395.42Zm13.09-27.72c0-7.48-5.72-13.09-13.86-13.09H416.63c-8.14,0-14,5.61-14,13.09v5.72c0,8.14,6.38,12.87,13.86,12.87h27.06c7.48,0,13.86-4.73,13.86-12.87ZM456.23,328c0-8.14-6.38-13-13.86-13H417.84c-7.48,0-13.86,4.84-13.86,13v4.84c0,7.48,5.83,13,14,13h24.42c8.14,0,13.86-5.5,13.86-13Z" transform="translate(0.13 0.13)"/><path class="cls-7" d="M206.24,242.46H187.87c-13,0-15.62,6.93-15.62,16.61v11.22H231v9.13H163.23v-21c0-14.08,5.72-24.64,23.54-24.64h18.59c9.9,0,16.94-6.16,16.94-15.4v-4.18c0-9.46-6.71-15.29-16.72-15.29h-41.8v-9h42.57c14.41,0,24.75,9.35,24.75,23.43v5.83C231.1,233.22,220.65,242.46,206.24,242.46Z" transform="translate(0.13 0.13)"/><path class="cls-7" d="M293.58,279.42H269.27c-13.42,0-23.1-9.9-23.1-22.44V212.21c0-13.31,10.45-22.33,22.88-22.33h24.64c12.54,0,22.77,9,22.77,22.33V257C316.46,269.52,306.89,279.42,293.58,279.42ZM307.22,213c0-8.58-6.6-14-14.3-14h-23.1c-7.7,0-14.41,5.39-14.41,14v43.23c0,7.59,6.27,14,14.63,14h22.77a14.09,14.09,0,0,0,14.41-14Z" transform="translate(0.13 0.13)"/><line class="cls-8" x1="307.94" y1="201.02" x2="255.54" y2="267.77"/><path class="cls-7" d="M354.3,279.42V206.49a7.23,7.23,0,0,0-7.37-7.37H332.19V190H348c9,0,15.4,6.6,15.4,15.4v74Z" transform="translate(0.13 0.13)"/><path class="cls-7" d="M435.59,279.31H391.15v-9.13H435c8.36,0,14.19-5.94,14.19-13.86V243.56H410.62c-12.43,0-22.77-8.47-22.77-22.11v-9.57c0-12.54,9.46-22,22.88-22h24.86c13.53,0,22.88,9.57,22.88,22v44.88C458.47,269.41,448.9,279.31,435.59,279.31Zm13.64-66.77c0-7.59-5.72-13.53-14.3-13.53H411.17c-8.47,0-14.08,5.83-14.08,13.42v8.91c0,8.36,6.27,13.31,14,13.31h38.17Z" transform="translate(0.13 0.13)"/><path class="cls-7" d="M351.22,389.42H326.91c-13.42,0-23.1-9.9-23.1-22.44V322.21c0-13.31,10.45-22.33,22.88-22.33h24.64c12.54,0,22.77,9,22.77,22.33V367C374.1,379.52,364.53,389.42,351.22,389.42ZM364.86,323c0-8.58-6.6-14-14.3-14h-23.1c-7.7,0-14.41,5.39-14.41,14v43.23c0,7.59,6.27,14,14.63,14h22.77a14.09,14.09,0,0,0,14.41-14Z" transform="translate(0.13 0.13)"/><line class="cls-8" x1="364.99" y1="311.49" x2="311.35" y2="378.18"/><path class="cls-7" d="M437.35,389.42h-28.6c-12.1,0-22-8.25-22-21.23V361.7a20.91,20.91,0,0,1,9.79-17.93A20.69,20.69,0,0,1,388,326.83v-5.61c0-13,9.35-21.23,21.45-21.23H436.8c12.21,0,21.56,8.25,21.56,21.23v5.61a20.78,20.78,0,0,1-8.69,16.94,21,21,0,0,1,9.9,17.93v6.49C459.57,381.17,449.67,389.42,437.35,389.42Zm13.09-27.72c0-7.48-5.72-13.09-13.86-13.09H409.63c-8.14,0-14,5.61-14,13.09v5.72c0,8.14,6.38,12.87,13.86,12.87h27.06c7.48,0,13.86-4.73,13.86-12.87ZM449.23,322c0-8.14-6.38-13-13.86-13H410.84c-7.48,0-13.86,4.84-13.86,13v4.84c0,7.48,5.83,13,14,13h24.42c8.14,0,13.86-5.5,13.86-13Z" transform="translate(0.13 0.13)"/></svg>