<svg id="レイヤー_1" data-name="レイヤー 1" xmlns="http://www.w3.org/2000/svg" viewBox="0 0 322.72 31"><defs><style>.cls-1{fill:#ff29af;}</style></defs><title>ひと夏の挑戦</title><path class="cls-1" d="M19.18,30.39A11.18,11.18,0,0,1,7.7,19.51v-1H2.36V15.76H7.7V8.23H2.36V5.45H7.7V1.87h2.81V19a8.37,8.37,0,0,0,8.1,8.64h.57a8.38,8.38,0,0,0,8.64-8.11V12.2h2.8V19A11.17,11.17,0,0,1,19.67,30.39Z" transform="translate(-2.36 -0.34)"/><path class="cls-1" d="M35.74,30.82,34,28.6,55.43,12.3H36.29V9.43H60v2.71ZM38.22,4.44V1.8H57.13V4.44Zm13,26.28V19.21H54v8.87h9.22v2.64Z" transform="translate(-2.36 -0.34)"/><path class="cls-1" d="M92.37,12.17V18.1a12.56,12.56,0,0,1-25.11,0,12.2,12.2,0,0,1,7-11V5.91h-7V3.11H77V8.84A9.78,9.78,0,1,0,89.63,18V9.43h6.52v2.81Zm.19-4.27a3.78,3.78,0,1,1,3.78-3.78h0A3.78,3.78,0,0,1,92.56,7.9Zm0-5.67a1.89,1.89,0,0,0,0,3.78,1.85,1.85,0,0,0,1.89-1.83V4.12A1.91,1.91,0,0,0,92.56,2.23Z" transform="translate(-2.36 -0.34)"/><path class="cls-1" d="M123,29.64l-1.92-1.92a12.32,12.32,0,0,0,4.63-9.39A11.9,11.9,0,0,0,123,10.64L104.76,29.55a14.37,14.37,0,0,1-5.45-11.22,14.58,14.58,0,0,1,29.15,0A14.86,14.86,0,0,1,123,29.64ZM113.85,6.4A11.9,11.9,0,0,0,102,18.3v0a11.76,11.76,0,0,0,2.71,7.4L121,8.81a11.66,11.66,0,0,0-7-2.41Z" transform="translate(-2.36 -0.34)"/><path class="cls-1" d="M157.67,11V18.1a12.56,12.56,0,0,1-25.11,0,12.2,12.2,0,0,1,7-11V5.91h-7V3.11h9.78V8.84A9.78,9.78,0,1,0,154.93,18V8.26h6.52v2.8Z" transform="translate(-2.36 -0.34)"/><path class="cls-1" d="M182.57,7.57v5.51H179.8V7.57h-1.92a9.91,9.91,0,1,0,0,19.82h8.93V30.2h-9a12.78,12.78,0,1,1-1.29-25.53q.65,0,1.29,0h2V1.41h2.77V4.67h10.79v2.9Z" transform="translate(-2.36 -0.34)"/><path class="cls-1" d="M211.43,4l-.72,2.15H224.5v13H206.86l.91,1-.94.82h13.23l.72-.69,1.34,1.76-6,4.4L226.42,29,226,31.11l-12.1-3-4.73,3.26-1.4-1.47L211,27.43l-5-1.27.56-2,6.74,1.6,3.95-2.83H206V21.59l-8,6.88-1.53-1.79,8.93-7.47H199v-13h8.86l.69-2H197V1.74h29.34V4Zm10.4,3.81H201.65V9.89h20.18Zm0,3.69H201.65V13.6h20.18Zm0,3.71H201.65v2.06h20.18Z" transform="translate(-2.36 -0.34)"/><path class="cls-1" d="M253.64,29.64l-1.92-1.92a12.29,12.29,0,0,0,4.63-9.39,11.94,11.94,0,0,0-2.77-7.69L235.32,29.55a14.33,14.33,0,0,1-5.41-11.22,14.58,14.58,0,0,1,29.15,0A14.84,14.84,0,0,1,253.64,29.64ZM244.52,6.4a11.9,11.9,0,0,0-11.94,11.87v.06a11.79,11.79,0,0,0,2.64,7.4l16.3-16.92A11.67,11.67,0,0,0,244.52,6.4Z" transform="translate(-2.36 -0.34)"/><path class="cls-1" d="M268.28,20.65v9.94h-2.57V21.46l-3,1L262,20l3.69-1.14V9.43h-3.26V6.86h3.26V1.12h2.57V6.86h3.07V9.43h-3.07V18l2.51-.78.69,2.45ZM276.2,9.79l-4.3-2.74,1-2.15,4.27,2.74Zm-3.26,12.06-1.17-2.12,4.43-2.8L277.34,19Zm2.61,8.71-2.38-1,4.5-10.79V1.12h2.48V19.21Zm8.25-.46v-29h2.48V27.36h5.57V30.1Zm4-20.11-1.2-2.16,4.49-3L292.41,7Zm3.26,11.86-4.46-3,1.23-2.22,4.57,3Z" transform="translate(-2.36 -0.34)"/><path class="cls-1" d="M304.5,26.71v3.81h-2.41V26.71h-7V24.33h7V21.07H296V6.46H310.7V21.14h-6.2V24.4h7v2.31ZM297.36,5.49l-1.24-3.85L298.24,1l1.24,3.85Zm4.83,3.26h-3.95v3.94h4Zm0,6.13h-3.95v4h4Zm.35-9.78-1.23-3.75,2.15-.62,1.24,3.81Zm5.84,3.52h-4v4.07h4Zm0,6.13h-4v4.17h4Zm.78-8.58-2.25-.68L308.8.66l2.22.72Zm12.46,15,2.47,9.16-2.25.42L319.73,23l-6.3,6.26-1.66-1.79,7.14-7.21-2-7.56-4.6.85-.23-2.35,4.34-.78-2.48-8.54,2.32-.62,2.34,8.7,5.74-1,.39,2.38-5.51,1,1.63,6,2.58-2.64,1.66,1.86Zm.22-13.89-1.36-5.12,2-.55,1.37,5.15Z" transform="translate(-2.36 -0.34)"/></svg>