<svg id="レイヤー_1" data-name="レイヤー 1" xmlns="http://www.w3.org/2000/svg" viewBox="0 0 265.03 25.63"><defs><style>.cls-1{fill:#ff29af;}</style></defs><title>ひと夏の挑戦</title><path class="cls-1" d="M16.63,25.38A9.18,9.18,0,0,1,7.23,16v-.37H2.76V13.35H7.23V7.19H2.76V4.92H7.23V2h2.3V16a6.88,6.88,0,0,0,7.1,7.1,6.88,6.88,0,0,0,7.1-7.1V10.46H26V16A9.18,9.18,0,0,1,16.63,25.38Z" transform="translate(-2.76 -0.71)"/><path class="cls-1" d="M30.23,25.73l-1.39-1.82,17.57-13.4H30.68V8.29H50.19v2.22ZM32.18,4.09V1.91H47.8V4.09ZM43.06,25.65V16.3h2.28v7.18h7.58v2.17Z" transform="translate(-2.76 -0.71)"/><path class="cls-1" d="M76.72,10.43v4.85a10.3,10.3,0,0,1-20.6,0,10,10,0,0,1,5.73-9V5.29H56.09V3h8V7.7a7.93,7.93,0,1,0,10.34,7.53V8.13h5.38v2.3Zm.16-3.51A3.11,3.11,0,1,1,80,3.82,3.1,3.1,0,0,1,76.88,6.92Zm0-4.66a1.56,1.56,0,1,0,1.55,1.56A1.57,1.57,0,0,0,76.88,2.26Z" transform="translate(-2.76 -0.71)"/><path class="cls-1" d="M101.91,24.76l-1.58-1.58a10.07,10.07,0,0,0,3.81-7.71,9.82,9.82,0,0,0-2.28-6.3l-15,15.51a11.73,11.73,0,0,1-4.45-9.21,12,12,0,1,1,23.92,0A12.21,12.21,0,0,1,101.91,24.76ZM94.41,5.69a9.76,9.76,0,0,0-9.77,9.78,9.64,9.64,0,0,0,2.17,6L100.23,7.65A9.6,9.6,0,0,0,94.41,5.69Z" transform="translate(-2.76 -0.71)"/><path class="cls-1" d="M130.32,9.44v5.84a10.3,10.3,0,0,1-20.6,0,10,10,0,0,1,5.73-9V5.29H109.7V3h8V7.7A7.93,7.93,0,1,0,128,15.23V7.14h5.39v2.3Z" transform="translate(-2.76 -0.71)"/><path class="cls-1" d="M150.78,6.66v4.52H148.5V6.66h-1.58a8.13,8.13,0,1,0,0,16.26h7.34v2.3h-7.37a10.48,10.48,0,1,1,0-20.95h1.61V1.51h2.28V4.27h8.86V6.66Z" transform="translate(-2.76 -0.71)"/><path class="cls-1" d="M174.47,3.74l-.59,1.66h11.3V16.09H170.72l.75.83-.78.67h10.88l.64-.46,1.07,1.45-4.95,3.61,8.43,2.09L186.39,26l-9.91-2.49-3.88,2.81L171.33,25l2.82-2-4.13-1,.46-1.66L176,21.61l3.24-2.34H170V18.2l-6.54,5.6-1.26-1.47,7.32-6.24h-5.2V5.4h7.29l.56-1.66H162.6V1.86h24.22V3.74ZM183,6.87H166.43V8.56H183Zm0,3H166.43v1.71H183Zm0,3H166.43v1.66H183Z" transform="translate(-2.76 -0.71)"/><path class="cls-1" d="M209.12,24.76l-1.58-1.58a10.09,10.09,0,0,0,3.8-7.71,9.81,9.81,0,0,0-2.27-6.3l-15,15.51a11.75,11.75,0,0,1-4.44-9.21,12,12,0,1,1,23.92,0A12.21,12.21,0,0,1,209.12,24.76Zm-7.5-19.07a9.77,9.77,0,0,0-9.78,9.78,9.64,9.64,0,0,0,2.17,6L207.43,7.65A9.57,9.57,0,0,0,201.62,5.69Z" transform="translate(-2.76 -0.71)"/><path class="cls-1" d="M221.13,17.37v8.17H219V18l-2.49.78-.54-2,3-.94V8.1h-2.73v-2H219V1.35h2.11V6.07h2.52v2h-2.52v7.08l2.07-.65.56,2Zm6.38-8.89L224,6.23,225,4.46l3.51,2.25Zm-2.57,9.88-1-1.74,3.57-2.3.93,1.71Zm2.14,7.15-2-.8,3.69-8.87V1.35h2V16.11Zm6.78-.37V1.35h2V22.89h4.58v2.25Zm3.32-16.5-1-1.77,3.7-2.44,1,1.74Zm2.76,9.72-3.72-2.43,1-1.83L241,16.54Z" transform="translate(-2.76 -0.71)"/><path class="cls-1" d="M250.88,22.36v3.13h-2V22.36h-5.78v-2h5.78V17.77h-5v-12H256v12h-5.07V20.4h5.71v2ZM245,4.94l-1-3.16,1.74-.51,1,3.16Zm4,2.65h-3.24v3.27H249Zm0,5h-3.24V16H249Zm.3-7.93-1-3.16L250,1l1,3.14Zm4.77,2.89H250.8v3.27h3.25Zm0,5H250.8V16h3.25Zm.64-7.26-1.82-.56L254.29,1l1.82.59Zm10.23,12.32,2,7.53-1.91.48-1.74-6.4-5.11,5.14L256.83,23l5.87-5.92L261,10.89l-3.78.69-.32-1.95L260.5,9l-1.9-7,1.9-.51,2,7.15,4.71-.86.32,2-4.53.83,1.34,4.9,2.12-2.14,1.37,1.5Zm.16-11.25L264,2.24l1.69-.46L266.79,6Z" transform="translate(-2.76 -0.71)"/></svg>